<?xml version="1.0" encoding="iso-8859-1"?>
<!-- Uploaded to: SVG Repo, www.svgrepo.com, Generator: SVG Repo Mixer Tools -->
<svg version="1.1" id="Layer_1" xmlns="http://www.w3.org/2000/svg" xmlns:xlink="http://www.w3.org/1999/xlink" 
	 viewBox="0 0 473.931 473.931" xml:space="preserve">
<circle style="fill:#EDC92C;" cx="236.966" cy="236.966" r="236.966"/>
<path style="fill:#DDF0EE;" d="M120.204,253.736l-0.778,0.775c-7.558,7.558,94.105,109.218,101.664,101.664l0.775-0.775
	C221.864,355.4,119.426,254.511,120.204,253.736z"/>
<path style="fill:#CEE9E4;" d="M120.204,253.736l-0.778,0.775c-3.779,3.779,19.749,31.09,45.163,56.501l6.155-6.155
	C145.132,279.438,119.815,254.122,120.204,253.736z"/>
<path style="fill:#DDF0EE;" d="M323.307,152.297c-13.16-13.16-34.499-13.16-47.655,0L142.123,285.822l47.651,47.659l133.532-133.536
	C336.463,186.785,336.459,165.453,323.307,152.297z"/>
<path style="fill:#CEE9E4;" d="M323.307,152.297c-13.16-13.16-34.499-13.16-47.655,0l-134.464,134.46l23.824,23.824L323.307,152.297
	z"/>
<path style="fill:#BDE3DB;" d="M320.512,155.201c-11.618-11.678-30.454-11.671-42.065,0.026l-76.931,77.537l42.076,42.278
	l76.934-77.533C332.137,185.816,332.13,166.871,320.512,155.201z"/>
<path style="fill:#B6DBD4;" d="M320.512,155.201c-11.618-11.678-30.454-11.671-42.065,0.026l-76.957,77.555l20.718,20.557
	L320.512,155.201z"/>
<path style="fill:#49A0AE;" d="M117.791,380.428l112.728-112.743l-22.608-22.6L95.422,357.581c-3.764-3.91-6.339-6.623-6.339-6.623
	l-0.876,0.872c-4.277,4.281,2.133,15.656,11.027,24.55s20.273,15.296,24.55,11.019l0.876-0.876
	C124.414,386.771,121.66,384.238,117.791,380.428z"/>
<path style="fill:#3F98A1;" d="M219.245,256.423l-11.334-11.334L95.422,357.585c-3.764-3.91-6.339-6.623-6.339-6.623l-0.876,0.872
	c-4.277,4.281,2.133,15.656,11.027,24.55L219.245,256.423z"/>
<path style="fill:#E4E4E4;" d="M384.889,88.882l-58.532,57.301c-0.853,0.853,2.211,3.91,3.057,3.061l57.309-58.525
	c0,0,0.075-0.958-0.453-1.426S384.889,88.882,384.889,88.882z"/>
<path style="fill:#49A0AE;" d="M331.03,144.567c-2.765-2.761-7.252-2.769-10.028,0.007l-3.51,3.502l10.028,10.028l3.51-3.51
	C333.806,151.826,333.799,147.336,331.03,144.567z"/>
<g>
	
		<rect x="215.798" y="217.876" transform="matrix(-0.7071 0.7071 -0.7071 -0.7071 541.5701 252.2298)" style="fill:#86BBB1;" width="5.497" height="40.803"/>
	
		<rect x="232.32" y="201.388" transform="matrix(-0.7068 0.7074 -0.7074 -0.7068 558.1104 212.2598)" style="fill:#86BBB1;" width="5.497" height="40.8"/>
	
		<rect x="249.852" y="183.836" transform="matrix(-0.7071 0.7071 -0.7071 -0.7071 575.6343 170.0399)" style="fill:#86BBB1;" width="5.497" height="40.803"/>
	
		<rect x="267.829" y="165.866" transform="matrix(-0.7071 0.7071 -0.7071 -0.7071 593.6133 126.649)" style="fill:#86BBB1;" width="5.497" height="40.8"/>
	
		<rect x="284.176" y="149.514" transform="matrix(-0.7071 0.7071 -0.7071 -0.7071 609.9577 87.175)" style="fill:#86BBB1;" width="5.497" height="40.8"/>
</g>
</svg>